<mxfile host="app.diagrams.net" modified="2020-08-09T00:44:54.776Z" agent="5.0 (Macintosh; Intel Mac OS X 10_15_6) AppleWebKit/605.1.15 (KHTML, like Gecko) Version/13.1.2 Safari/605.1.15" etag="q3ej97nNtmAldhBcbEWq" version="13.6.2" type="github">
  <diagram id="ZGMmvDZdMoNJGduGo5os" name="Page-1">
    <mxGraphModel dx="830" dy="584" grid="1" gridSize="10" guides="1" tooltips="1" connect="1" arrows="1" fold="1" page="1" pageScale="1" pageWidth="827" pageHeight="1169" math="0" shadow="0">
      <root>
        <mxCell id="0" />
        <mxCell id="1" parent="0" />
        <mxCell id="1ypN2AIa47rlvgvXfcB--6" style="edgeStyle=orthogonalEdgeStyle;rounded=0;orthogonalLoop=1;jettySize=auto;html=1;exitX=0.5;exitY=1;exitDx=0;exitDy=0;entryX=0.5;entryY=0;entryDx=0;entryDy=0;" edge="1" parent="1" source="1ypN2AIa47rlvgvXfcB--1" target="1ypN2AIa47rlvgvXfcB--2">
          <mxGeometry relative="1" as="geometry" />
        </mxCell>
        <mxCell id="1ypN2AIa47rlvgvXfcB--1" value="&lt;b&gt;Enter Year&lt;/b&gt;" style="rounded=0;whiteSpace=wrap;html=1;fillColor=#dae8fc;strokeColor=#6c8ebf;" vertex="1" parent="1">
          <mxGeometry x="180" y="40" width="170" height="60" as="geometry" />
        </mxCell>
        <mxCell id="1ypN2AIa47rlvgvXfcB--8" style="edgeStyle=orthogonalEdgeStyle;rounded=0;orthogonalLoop=1;jettySize=auto;html=1;exitX=0;exitY=0.5;exitDx=0;exitDy=0;" edge="1" parent="1" source="1ypN2AIa47rlvgvXfcB--2">
          <mxGeometry relative="1" as="geometry">
            <mxPoint x="100" y="248" as="targetPoint" />
            <Array as="points">
              <mxPoint x="100" y="190" />
              <mxPoint x="100" y="248" />
            </Array>
          </mxGeometry>
        </mxCell>
        <mxCell id="1ypN2AIa47rlvgvXfcB--10" style="edgeStyle=orthogonalEdgeStyle;rounded=0;orthogonalLoop=1;jettySize=auto;html=1;exitX=1;exitY=0.5;exitDx=0;exitDy=0;entryX=0.5;entryY=0;entryDx=0;entryDy=0;" edge="1" parent="1" source="1ypN2AIa47rlvgvXfcB--2" target="1ypN2AIa47rlvgvXfcB--4">
          <mxGeometry relative="1" as="geometry" />
        </mxCell>
        <mxCell id="1ypN2AIa47rlvgvXfcB--2" value="Divide &amp;nbsp;by 4" style="rhombus;whiteSpace=wrap;html=1;gradientColor=#97d077;fillColor=#d5e8d4;strokeColor=#82b366;" vertex="1" parent="1">
          <mxGeometry x="207.5" y="150" width="115" height="80" as="geometry" />
        </mxCell>
        <mxCell id="1ypN2AIa47rlvgvXfcB--3" value="" style="rounded=1;whiteSpace=wrap;html=1;fillColor=#fff2cc;strokeColor=#d6b656;" vertex="1" parent="1">
          <mxGeometry x="40" y="250" width="120" height="60" as="geometry" />
        </mxCell>
        <mxCell id="1ypN2AIa47rlvgvXfcB--4" value="" style="rounded=1;whiteSpace=wrap;html=1;fillColor=#fff2cc;strokeColor=#d6b656;" vertex="1" parent="1">
          <mxGeometry x="390" y="260" width="120" height="60" as="geometry" />
        </mxCell>
        <mxCell id="1ypN2AIa47rlvgvXfcB--11" value="not a leap year" style="text;html=1;align=center;verticalAlign=middle;resizable=0;points=[];autosize=1;" vertex="1" parent="1">
          <mxGeometry x="105" y="170" width="90" height="20" as="geometry" />
        </mxCell>
        <mxCell id="1ypN2AIa47rlvgvXfcB--13" value="leap year" style="text;html=1;strokeColor=none;fillColor=none;align=center;verticalAlign=middle;whiteSpace=wrap;rounded=0;" vertex="1" parent="1">
          <mxGeometry x="350" y="170" width="70" height="20" as="geometry" />
        </mxCell>
        <mxCell id="1ypN2AIa47rlvgvXfcB--15" value="Remaing&amp;nbsp;" style="text;html=1;strokeColor=none;fillColor=none;align=center;verticalAlign=middle;whiteSpace=wrap;rounded=0;" vertex="1" parent="1">
          <mxGeometry x="70" y="270" width="50" height="20" as="geometry" />
        </mxCell>
        <mxCell id="1ypN2AIa47rlvgvXfcB--16" value="Not any remains" style="text;html=1;strokeColor=none;fillColor=none;align=center;verticalAlign=middle;whiteSpace=wrap;rounded=0;" vertex="1" parent="1">
          <mxGeometry x="410" y="280" width="80" height="20" as="geometry" />
        </mxCell>
        <mxCell id="1ypN2AIa47rlvgvXfcB--57" style="edgeStyle=orthogonalEdgeStyle;rounded=0;orthogonalLoop=1;jettySize=auto;html=1;exitX=0.5;exitY=1;exitDx=0;exitDy=0;entryX=0.5;entryY=0;entryDx=0;entryDy=0;" edge="1" parent="1" target="1ypN2AIa47rlvgvXfcB--60">
          <mxGeometry relative="1" as="geometry">
            <mxPoint x="625" y="540" as="sourcePoint" />
          </mxGeometry>
        </mxCell>
        <mxCell id="1ypN2AIa47rlvgvXfcB--58" style="edgeStyle=orthogonalEdgeStyle;rounded=0;orthogonalLoop=1;jettySize=auto;html=1;exitX=0;exitY=0.5;exitDx=0;exitDy=0;" edge="1" parent="1" source="1ypN2AIa47rlvgvXfcB--60">
          <mxGeometry relative="1" as="geometry">
            <mxPoint x="460" y="688" as="targetPoint" />
            <Array as="points">
              <mxPoint x="460" y="630" />
              <mxPoint x="460" y="688" />
            </Array>
          </mxGeometry>
        </mxCell>
        <mxCell id="1ypN2AIa47rlvgvXfcB--59" style="edgeStyle=orthogonalEdgeStyle;rounded=0;orthogonalLoop=1;jettySize=auto;html=1;exitX=1;exitY=0.5;exitDx=0;exitDy=0;entryX=0.5;entryY=0;entryDx=0;entryDy=0;" edge="1" parent="1" source="1ypN2AIa47rlvgvXfcB--60" target="1ypN2AIa47rlvgvXfcB--62">
          <mxGeometry relative="1" as="geometry" />
        </mxCell>
        <mxCell id="1ypN2AIa47rlvgvXfcB--60" value="Divide by 400" style="rhombus;whiteSpace=wrap;html=1;gradientColor=#97d077;fillColor=#d5e8d4;strokeColor=#82b366;" vertex="1" parent="1">
          <mxGeometry x="567.5" y="590" width="115" height="80" as="geometry" />
        </mxCell>
        <mxCell id="1ypN2AIa47rlvgvXfcB--61" value="" style="rounded=1;whiteSpace=wrap;html=1;fillColor=#fff2cc;strokeColor=#d6b656;" vertex="1" parent="1">
          <mxGeometry x="400" y="690" width="120" height="60" as="geometry" />
        </mxCell>
        <mxCell id="1ypN2AIa47rlvgvXfcB--62" value="" style="rounded=1;whiteSpace=wrap;html=1;fillColor=#fff2cc;strokeColor=#d6b656;" vertex="1" parent="1">
          <mxGeometry x="750" y="700" width="120" height="60" as="geometry" />
        </mxCell>
        <mxCell id="1ypN2AIa47rlvgvXfcB--63" value="not a leap year" style="text;html=1;align=center;verticalAlign=middle;resizable=0;points=[];autosize=1;" vertex="1" parent="1">
          <mxGeometry x="465" y="610" width="90" height="20" as="geometry" />
        </mxCell>
        <mxCell id="1ypN2AIa47rlvgvXfcB--64" value="leap year" style="text;html=1;strokeColor=none;fillColor=none;align=center;verticalAlign=middle;whiteSpace=wrap;rounded=0;" vertex="1" parent="1">
          <mxGeometry x="710" y="610" width="70" height="20" as="geometry" />
        </mxCell>
        <mxCell id="1ypN2AIa47rlvgvXfcB--65" value="Remaing&amp;nbsp;" style="text;html=1;strokeColor=none;fillColor=none;align=center;verticalAlign=middle;whiteSpace=wrap;rounded=0;" vertex="1" parent="1">
          <mxGeometry x="430" y="710" width="50" height="20" as="geometry" />
        </mxCell>
        <mxCell id="1ypN2AIa47rlvgvXfcB--66" value="Not any remains" style="text;html=1;strokeColor=none;fillColor=none;align=center;verticalAlign=middle;whiteSpace=wrap;rounded=0;" vertex="1" parent="1">
          <mxGeometry x="770" y="720" width="80" height="20" as="geometry" />
        </mxCell>
        <mxCell id="1ypN2AIa47rlvgvXfcB--67" style="edgeStyle=orthogonalEdgeStyle;rounded=0;orthogonalLoop=1;jettySize=auto;html=1;exitX=0.5;exitY=1;exitDx=0;exitDy=0;entryX=0.5;entryY=0;entryDx=0;entryDy=0;" edge="1" parent="1" target="1ypN2AIa47rlvgvXfcB--70">
          <mxGeometry relative="1" as="geometry">
            <mxPoint x="445" y="320" as="sourcePoint" />
          </mxGeometry>
        </mxCell>
        <mxCell id="1ypN2AIa47rlvgvXfcB--68" style="edgeStyle=orthogonalEdgeStyle;rounded=0;orthogonalLoop=1;jettySize=auto;html=1;exitX=0;exitY=0.5;exitDx=0;exitDy=0;" edge="1" parent="1" source="1ypN2AIa47rlvgvXfcB--70">
          <mxGeometry relative="1" as="geometry">
            <mxPoint x="280" y="468" as="targetPoint" />
            <Array as="points">
              <mxPoint x="280" y="410" />
              <mxPoint x="280" y="468" />
            </Array>
          </mxGeometry>
        </mxCell>
        <mxCell id="1ypN2AIa47rlvgvXfcB--69" style="edgeStyle=orthogonalEdgeStyle;rounded=0;orthogonalLoop=1;jettySize=auto;html=1;exitX=1;exitY=0.5;exitDx=0;exitDy=0;entryX=0.5;entryY=0;entryDx=0;entryDy=0;" edge="1" parent="1" source="1ypN2AIa47rlvgvXfcB--70" target="1ypN2AIa47rlvgvXfcB--72">
          <mxGeometry relative="1" as="geometry" />
        </mxCell>
        <mxCell id="1ypN2AIa47rlvgvXfcB--70" value="Divide &amp;nbsp;by &amp;nbsp;100" style="rhombus;whiteSpace=wrap;html=1;gradientColor=#97d077;fillColor=#d5e8d4;strokeColor=#82b366;" vertex="1" parent="1">
          <mxGeometry x="387.5" y="370" width="115" height="80" as="geometry" />
        </mxCell>
        <mxCell id="1ypN2AIa47rlvgvXfcB--71" value="" style="rounded=1;whiteSpace=wrap;html=1;fillColor=#fff2cc;strokeColor=#d6b656;" vertex="1" parent="1">
          <mxGeometry x="220" y="470" width="120" height="60" as="geometry" />
        </mxCell>
        <mxCell id="1ypN2AIa47rlvgvXfcB--72" value="" style="rounded=1;whiteSpace=wrap;html=1;fillColor=#fff2cc;strokeColor=#d6b656;" vertex="1" parent="1">
          <mxGeometry x="570" y="480" width="120" height="60" as="geometry" />
        </mxCell>
        <mxCell id="1ypN2AIa47rlvgvXfcB--73" value="not a leap year" style="text;html=1;align=center;verticalAlign=middle;resizable=0;points=[];autosize=1;" vertex="1" parent="1">
          <mxGeometry x="280" y="390" width="90" height="20" as="geometry" />
        </mxCell>
        <mxCell id="1ypN2AIa47rlvgvXfcB--74" value="leap year" style="text;html=1;strokeColor=none;fillColor=none;align=center;verticalAlign=middle;whiteSpace=wrap;rounded=0;" vertex="1" parent="1">
          <mxGeometry x="510" y="390" width="70" height="20" as="geometry" />
        </mxCell>
        <mxCell id="1ypN2AIa47rlvgvXfcB--75" value="Remaing&amp;nbsp;" style="text;html=1;strokeColor=none;fillColor=none;align=center;verticalAlign=middle;whiteSpace=wrap;rounded=0;" vertex="1" parent="1">
          <mxGeometry x="600" y="500" width="50" height="20" as="geometry" />
        </mxCell>
        <mxCell id="1ypN2AIa47rlvgvXfcB--76" value="Not any remains" style="text;html=1;strokeColor=none;fillColor=none;align=center;verticalAlign=middle;whiteSpace=wrap;rounded=0;" vertex="1" parent="1">
          <mxGeometry x="240" y="490" width="80" height="20" as="geometry" />
        </mxCell>
      </root>
    </mxGraphModel>
  </diagram>
</mxfile>
